<?xml version="1.0" encoding="utf-8"?>
<!-- Generator: Adobe Illustrator 28.2.0, SVG Export Plug-In . SVG Version: 6.00 Build 0)  -->
<svg version="1.1" id="Layer_1" xmlns="http://www.w3.org/2000/svg" xmlns:xlink="http://www.w3.org/1999/xlink" x="0px" y="0px"
	 viewBox="0 0 466 89" style="enable-background:new 0 0 466 89;" xml:space="preserve">
<style type="text/css">
	.st0{fill-rule:evenodd;clip-rule:evenodd;fill:#A39068;}
	.st1{fill:#A9946C;}
</style>
<path id="Fill-9" class="st0" d="M135,39.5c0-3.6,2.9-6.5,6.5-6.5s6.5,2.9,6.5,6.5s-2.9,6.5-6.5,6.5S135,43.1,135,39.5"/>
<path id="Fill-10" class="st0" d="M294.5,40.6c0-3.6,2.9-6.5,6.5-6.5s6.5,2.9,6.5,6.5s-2.9,6.5-6.5,6.5S294.5,44.1,294.5,40.6"/>
<g>
	<path id="Fill-1_00000013175011143704726320000016443263233875551640_" class="st0" d="M71.9,40.6c0,2,0.1,4.2,0.2,6.6
		s0.4,4.9,0.9,7.3c0.4,2.5,1.1,4.9,1.9,7.3c0.8,2.4,1.9,4.5,3.2,6.3s2.9,3.3,4.9,4.4c1.9,1.1,4.2,1.7,6.9,1.7c2.6,0,4.9-0.6,6.9-1.7
		s3.6-2.6,4.9-4.4c1.3-1.8,2.4-3.9,3.2-6.3c0.8-2.4,1.4-4.8,1.9-7.3c0.4-2.5,0.7-4.9,0.9-7.3c0.1-2.4,0.2-4.6,0.2-6.6
		c0-1.9-0.1-4.1-0.2-6.6c-0.1-2.4-0.4-4.9-0.9-7.4c-0.4-2.5-1.1-4.9-1.9-7.3c-0.8-2.4-1.9-4.5-3.2-6.3c-1.3-1.8-3-3.3-4.9-4.4
		c-2-1.1-4.3-1.7-6.9-1.7S85,7.5,83,8.6s-3.6,2.6-4.9,4.4s-2.4,3.9-3.2,6.3c-0.8,2.4-1.4,4.8-1.9,7.3c-0.4,2.5-0.7,4.9-0.9,7.4
		C71.9,36.5,71.9,38.7,71.9,40.6z M64.8,40.6c0-2.7,0.1-5.6,0.4-8.7c0.2-3.1,0.7-6,1.4-9c0.7-2.9,1.6-5.7,2.8-8.3
		c1.2-2.6,2.7-4.9,4.5-7c1.9-2,4.1-3.6,6.7-4.8C83.2,1.6,86.3,1,89.8,1c3.6,0,6.6,0.6,9.2,1.8c2.6,1.2,4.8,2.8,6.7,4.8
		s3.4,4.3,4.5,7c1.2,2.6,2.1,5.4,2.8,8.3c0.7,2.9,1.1,5.9,1.4,9c0.2,3.1,0.4,6,0.4,8.7c0,2.8-0.1,5.7-0.4,8.7c-0.3,3-0.7,6-1.4,8.9
		c-0.7,2.9-1.6,5.7-2.8,8.3c-1.2,2.6-2.7,4.9-4.5,7c-1.9,2-4.1,3.6-6.7,4.8c-2.6,1.2-5.7,1.8-9.2,1.8c-3.6,0-6.6-0.6-9.2-1.8
		c-2.6-1.2-4.8-2.8-6.7-4.8c-1.9-2-3.4-4.3-4.5-7c-1.2-2.6-2.1-5.4-2.8-8.3c-0.7-2.9-1.1-5.9-1.4-8.9S64.8,43.4,64.8,40.6L64.8,40.6
		z"/>
	<polyline id="Fill-3_00000165946459842814331750000008525063669813953689_" class="st0" points="35.9,11.6 35.8,11.6 22.2,22.9 
		18.3,17.9 36.9,2.6 42.3,2.6 42.3,78.6 35.9,78.6 35.9,11.6 	"/>
</g>
<path id="Fill-1_00000155107107590693488080000014852639423081387145_" class="st0" d="M175.4,40.5c0,2,0.1,4.2,0.2,6.6
	c0.1,2.4,0.4,4.9,0.9,7.3c0.4,2.5,1.1,4.9,1.9,7.3c0.8,2.4,1.9,4.5,3.2,6.3s2.9,3.3,4.9,4.4c1.9,1.1,4.2,1.7,6.9,1.7
	c2.6,0,4.9-0.6,6.9-1.7c2-1.1,3.6-2.6,4.9-4.4c1.3-1.8,2.4-3.9,3.2-6.3c0.8-2.4,1.4-4.8,1.9-7.3c0.4-2.5,0.7-4.9,0.9-7.3
	c0.1-2.4,0.2-4.6,0.2-6.6c0-1.9-0.1-4.1-0.2-6.6c-0.1-2.4-0.4-4.9-0.9-7.4c-0.4-2.5-1.1-4.9-1.9-7.3c-0.8-2.4-1.9-4.5-3.2-6.3
	c-1.3-1.8-3-3.3-4.9-4.4c-2-1.1-4.3-1.7-6.9-1.7s-4.9,0.6-6.9,1.7s-3.6,2.6-4.9,4.4c-1.3,1.8-2.4,3.9-3.2,6.3
	c-0.8,2.4-1.4,4.8-1.9,7.3c-0.4,2.5-0.7,4.9-0.9,7.4C175.5,36.4,175.4,38.6,175.4,40.5z M168.3,40.5c0-2.7,0.1-5.6,0.4-8.7
	c0.2-3.1,0.7-6,1.4-9c0.7-2.9,1.6-5.7,2.8-8.3c1.2-2.6,2.7-4.9,4.5-7c1.9-2,4.1-3.6,6.7-4.8c2.6-1.2,5.7-1.8,9.2-1.8
	c3.6,0,6.6,0.6,9.2,1.8c2.6,1.2,4.8,2.8,6.7,4.8c1.9,2,3.4,4.3,4.5,7c1.2,2.6,2.1,5.4,2.8,8.3c0.7,2.9,1.1,5.9,1.4,9
	c0.2,3.1,0.4,6,0.4,8.7c0,2.8-0.1,5.7-0.4,8.7s-0.7,6-1.4,8.9c-0.7,2.9-1.6,5.7-2.8,8.3c-1.2,2.6-2.7,4.9-4.5,7
	c-1.9,2-4.1,3.6-6.7,4.8c-2.6,1.2-5.7,1.8-9.2,1.8c-3.6,0-6.6-0.6-9.2-1.8s-4.8-2.8-6.7-4.8c-1.9-2-3.4-4.3-4.5-7
	c-1.2-2.6-2.1-5.4-2.8-8.3c-0.7-2.9-1.1-5.9-1.4-8.9C168.5,46.2,168.3,43.3,168.3,40.5L168.3,40.5z"/>
<g>
	<path class="st1" d="M260.4,78.3c-2.5,0.1-2.8,0.1-5.8,0.2V62.2h-31.9c0,0,0-9.3,0-9.7c9.7-15.6,20.4-31.6,30.5-46.9
		c1.8-2.7,4.8-3.1,9.2-3v51.7c3.9,0,6-0.1,10.5-0.1v8.2l-9.9-0.1c-0.2,5.3-0.1,10.6-0.3,16.1 M250.8,24.4
		c-6.2,9.7-12.3,19.4-18.9,29.6h23.2V17.9C253.4,20.5,252.4,22.1,250.8,24.4z"/>
	<path class="st1" d="M256,9.6"/>
	<path class="st1" d="M267.8,53.7"/>
	<polygon class="st1" points="256.9,7.7 250,10.4 255.1,2.5 	"/>
	<path class="st1" d="M258.8,5.8"/>
	<polygon class="st1" points="255.1,2.5 262.4,2.5 255.1,7.9 	"/>
	<polygon class="st1" points="254.6,78.5 262.8,78.5 254.6,73.1 	"/>
	<polygon class="st1" points="272.8,54.1 262.3,54.1 272.8,62.2 	"/>
	<polygon class="st1" points="262.8,78.5 254.6,78.5 262.8,73.1 	"/>
	<polygon class="st1" points="263,62.2 272.8,62.2 263,56.8 	"/>
</g>
<g id="Group-8" transform="translate(2.000000, 287.000000)">
	<g id="Clip-6">
	</g>
	<path id="Fill-5" class="st0" d="M330.3-215l28.6-30.4c1.3-1.3,2.6-2.7,3.9-4.2c1.3-1.5,2.5-3,3.5-4.6s1.9-3.3,2.5-5.1
		c0.6-1.8,1-3.7,1-5.8c0-4.5-1.4-8-4.3-10.5c-2.9-2.5-6.5-3.8-10.9-3.8c-3.9,0-7.3,1.2-10,3.5c-2.7,2.3-4.5,5.3-5.3,9.1l-7.5-0.8
		c1.2-5.9,3.9-10.3,8.1-13.2c4.2-2.9,9.2-4.4,15.1-4.4c2.9,0,5.7,0.4,8.4,1.3c2.6,0.9,5,2.2,7,3.8c2,1.7,3.6,3.7,4.8,6.1
		c1.2,2.4,1.8,5.2,1.8,8.3c0,3-0.4,5.7-1.3,8.2s-2.1,4.9-3.5,7.2c-1.5,2.3-3.2,4.4-5.1,6.4s-3.8,4-5.8,6l-23.8,24.5h40v5.8h-47.2
		V-215"/>
</g>
<g>
	<path class="st1" d="M422.6,78.4c-2.5,0.1-2.8,0.1-5.8,0.2V62.2h-31.9c0,0,0-9.3,0-9.7c9.7-15.6,20.4-31.6,30.5-46.9
		c1.8-2.7,4.8-3.1,9.2-3v51.7c3.9,0,6-0.1,10.5-0.1v8.2l-9.9-0.1c-0.2,5.3-0.1,10.6-0.3,16.1 M413,24.5
		c-6.2,9.7-12.3,19.4-18.9,29.6h23.2V18C415.6,20.6,414.5,22.2,413,24.5z"/>
	<path class="st1" d="M418.2,9.6"/>
	<path class="st1" d="M429.9,53.8"/>
	<polygon class="st1" points="419,7.8 412.2,10.5 417.3,2.6 	"/>
	<path class="st1" d="M421,5.8"/>
	<polygon class="st1" points="417.3,2.6 424.5,2.6 417.3,7.9 	"/>
	<polygon class="st1" points="416.8,78.6 424.9,78.6 416.8,73.2 	"/>
	<polygon class="st1" points="435,54.1 424.4,54.1 435,62.3 	"/>
	<polygon class="st1" points="424.9,78.6 416.8,78.6 424.9,73.2 	"/>
	<polygon class="st1" points="425.2,62.3 435,62.3 425.2,56.9 	"/>
</g>
</svg>
