<?xml version="1.0" encoding="UTF-8"?>
<svg width="105px" height="366px" viewBox="0 0 105 366" version="1.1" xmlns="http://www.w3.org/2000/svg" xmlns:xlink="http://www.w3.org/1999/xlink">
    <title>Luminary_date</title>
    <defs>
        <polygon id="path-1" points="1.77635684e-15 0 103 0 103 79 1.77635684e-15 79"></polygon>
    </defs>
    <g id="Page-9" stroke="none" stroke-width="1" fill="none" fill-rule="evenodd">
        <g id="Landing" transform="translate(-69.000000, -413.000000)">
            <g id="Luminary_date" transform="translate(69.000000, 413.000000)">
                <path d="M7.0504284,39.4993655 C7.0504284,41.514691 7.12203824,43.7267265 7.26525792,46.1367412 C7.40722129,48.549294 7.69240433,50.9935742 8.11955074,53.4759273 C8.54795347,55.9582805 9.16982839,58.3873315 9.98894445,60.7605423 C10.8080605,63.1350222 11.8759265,65.2391846 13.1950552,67.0742984 C14.5116711,68.9094122 16.1323149,70.3841026 18.05573,71.4996385 C19.9778889,72.6164436 22.2920174,73.172308 24.9993718,73.172308 C27.6338601,73.172308 29.9304003,72.6164436 31.8915048,71.4996385 C33.8488404,70.3841026 35.4870725,68.9094122 36.8049448,67.0742984 C38.1228172,65.2391846 39.1906832,63.1350222 40.0110556,60.7605423 C40.8289153,58.3873315 41.4520465,55.9582805 41.8804493,53.4759273 C42.3075957,50.9935742 42.5902661,48.549294 42.7347421,46.1367412 C42.8767054,43.7267265 42.9483153,41.514691 42.9483153,39.4993655 C42.9483153,37.5576475 42.8767054,35.3633793 42.7347421,32.9152918 C42.5902661,30.4722807 42.3075957,28.0051567 41.8804493,25.5228036 C41.4520465,23.0417195 40.8289153,20.6126685 40.0110556,18.2381886 C39.1906832,15.8649778 38.1228172,13.7608154 36.8049448,11.9244325 C35.4870725,10.0905878 33.8488404,8.61716654 31.8915048,7.50036145 C29.9304003,6.38609456 27.6338601,5.82769201 24.9993718,5.82769201 C22.3648835,5.82769201 20.0670871,6.38609456 18.1084952,7.50036145 C16.148647,8.61716654 14.5116711,10.0905878 13.1950552,11.9244325 C11.8759265,13.7608154 10.8080605,15.8649778 9.98894445,18.2381886 C9.16982839,20.6126685 8.54795347,23.0417195 8.11955074,25.5228036 C7.69240433,28.0051567 7.40722129,30.4722807 7.26525792,32.9152918 C7.12203824,35.3633793 7.0504284,37.5576475 7.0504284,39.4993655 Z M0,39.4993655 C0,36.7670003 0.124374984,33.8709216 0.374381266,30.8111295 C0.623131234,27.7551447 1.08545441,24.7689601 1.7626071,21.8551141 C2.43850348,18.939999 3.36566245,16.1708301 4.54031508,13.5437999 C5.71622403,10.9193079 7.22882484,8.59813009 9.08188648,6.58280454 C10.9324355,4.57001719 13.1586221,2.96841716 15.7591899,1.78054266 C18.3572452,0.593937252 21.4364683,0 24.9993718,0 C28.5597628,0 31.6402422,0.593937252 34.2420664,1.78054266 C36.8401216,2.96841716 39.0663082,4.57001719 40.9181135,6.58280454 C42.7699188,8.59813009 44.283776,10.9193079 45.4596849,13.5437999 C46.6343375,16.1708301 47.5589839,18.939999 48.2373929,21.8551141 C48.9132893,24.7689601 49.3756125,27.7551447 49.6256187,30.8111295 C49.8743687,33.8709216 50,36.7670003 50,39.4993655 C50,42.3053382 49.8743687,45.2204533 49.6256187,48.2421726 C49.3756125,51.2638918 48.9132893,54.2310399 48.2373929,57.1448859 C47.5589839,60.0587319 46.6343375,62.830439 45.4596849,65.454931 C44.283776,68.0819612 42.7699188,70.403139 40.9181135,72.4159264 C39.0663082,74.4312519 36.8401216,76.0315828 34.2420664,77.2194573 C31.6402422,78.4060627 28.5597628,79 24.9993718,79 C21.4364683,79 18.3572452,78.4060627 15.7591899,77.2194573 C13.1586221,76.0315828 10.9324355,74.4312519 9.08188648,72.4159264 C7.22882484,70.403139 5.71622403,68.0819612 4.54031508,65.454931 C3.36566245,62.830439 2.43850348,60.0587319 1.7626071,57.1448859 C1.08545441,54.2310399 0.623131234,51.2638918 0.374381266,48.2421726 C0.124374984,45.2204533 0,42.3053382 0,39.4993655 L0,39.4993655 Z" id="Fill-1" fill="#A39068"></path>
                <path d="M101.887108,6.84859868 L70.5550365,6.84859868 L70.2332743,31.2239172 C71.8824635,30.3576468 73.6754994,29.7805579 75.6149055,29.4913765 C77.551788,29.203469 79.4533398,29.0582413 81.318299,29.0582413 C84.9788177,29.0582413 88.2607925,29.7257791 91.1692708,31.0621284 C94.0752255,32.3997517 96.5483784,34.2227412 98.5937768,36.5323708 C100.640437,38.8445482 102.217703,41.535082 103.330622,44.603972 C104.442279,47.674136 105,50.9417587 105,54.4081139 C105,58.5254459 104.265625,62.1370288 102.799399,65.2415888 C101.33191,68.3474227 99.4202642,70.9118377 97.0594126,72.9322859 C94.698561,74.9552819 92.0853469,76.4738028 89.2260793,77.4840269 C86.3630262,78.494251 83.5390893,79 80.7479596,79 C75.1682238,79 70.5007786,77.8445482 66.7443621,75.5323708 C62.9904693,73.2227412 60.0731583,70.0455674 58,65.9995754 L64.6522766,62.6415039 C65.2970629,64.087411 66.1714991,65.4403214 67.2818943,66.704057 C68.3897659,67.9690664 69.6591495,69.0875743 71.0913069,70.0621284 C72.5209407,71.0379565 74.0590904,71.795943 75.705756,72.337362 C77.349898,72.8787809 79.0318943,73.1501274 80.7479596,73.1501274 C82.4652867,73.1501274 84.3251987,72.7704972 86.3289573,72.0125106 C88.3301922,71.2545241 90.191366,70.1156334 91.9086931,68.5996603 C93.6247584,67.0824133 95.055654,65.1715228 96.2001181,62.8580715 C97.3433204,60.5484419 97.9161834,57.8744692 97.9161834,54.8412491 C97.9161834,52.0972104 97.4354328,49.5149605 96.4688842,47.0957732 C95.5023357,44.6765859 94.1622906,42.563141 92.4449635,40.7567126 C90.7276364,38.952832 88.7062124,37.5260338 86.3819534,36.4788659 C84.0564326,35.4329718 81.5353308,34.9081139 78.8173862,34.9081139 C76.096918,34.9081139 73.4521585,35.394754 70.8767988,36.3705821 C68.301439,37.3451362 65.9405874,38.5910368 63.794244,40.1082838 L64.427674,1 L101.887108,1 L101.887108,6.84859868" id="Fill-2" fill="#A39068"></path>
                <polyline id="Fill-3" fill="#A39068" points="25.6275561 154.016543 25.5214111 154.016543 11.9298611 165.287537 8 160.349455 26.5841095 145 32 145 32 221 25.6275561 221 25.6275561 154.016543"></polyline>
                <polyline id="Fill-4" fill="#A39068" points="101 150.796439 70.8361025 221 63.6690166 221 94.3687474 150.796439 58 150.796439 58 145 101 145 101 150.796439"></polyline>
                <g id="Group-8" transform="translate(2.000000, 287.000000)">
                    <mask id="mask-2" fill="white">
                        <use xlink:href="#path-1"></use>
                    </mask>
                    <g id="Clip-6"></g>
                    <path d="M1.77635684e-15,70.2169998 L28.5997324,39.8626767 C29.8905828,38.5656788 31.1801689,37.1797585 32.4710193,35.702375 C33.7618697,34.2275322 34.9250258,32.6777404 35.9655448,31.058081 C37.0035351,29.4371513 37.8468233,27.727299 38.4916163,25.9259837 C39.1364094,24.127209 39.4588059,22.1823474 39.4588059,20.0926691 C39.4588059,15.6287607 38.0250896,12.136648 35.1589213,9.61379022 C32.2902244,7.09474344 28.6705332,5.83331457 24.2998478,5.83331457 C20.3564958,5.83331457 17.0238008,6.98549583 14.3004984,9.28985834 C11.5759317,11.5954912 9.81981882,14.6213961 9.03215987,18.3650324 L1.50578141,17.607921 C2.7245667,11.7034685 5.4124687,7.29164322 9.57075171,4.37498593 C13.7265061,1.45705832 18.7445132,0 24.6222443,0 C27.5604777,0 30.3558452,0.449693676 33.0083468,1.34908103 C35.6583198,2.25100902 37.9884249,3.52895207 39.9961335,5.1854508 C42.0025777,6.84321986 43.5993887,8.87573365 44.780245,11.2893438 C45.9636299,13.7016836 46.5553223,16.4570101 46.5553223,19.5515123 C46.5553223,22.5075496 46.1064958,25.2425509 45.2113713,27.762868 C44.3137183,30.2844555 43.1315977,32.6777404 41.6637453,34.946534 C40.1933643,37.2153275 38.5080522,39.3583592 36.6090735,41.3743588 C34.7100948,43.3916287 32.7934158,45.4088987 30.8590367,47.423628 L7.09778072,71.9471772 L47.0926499,71.9471772 L47.0926499,77.7792214 L1.77635684e-15,77.7792214 L1.77635684e-15,70.2169998" id="Fill-5" fill="#A39068" mask="url(#mask-2)"></path>
                    <path d="M62.896401,61.7909598 C64.328853,65.4647285 66.283461,68.2924633 68.7551677,70.2716236 C71.2281387,72.2533245 74.6139343,73.2429047 78.9163475,73.2429047 C81.711715,73.2429047 84.184686,72.8097252 86.3339962,71.9471772 C88.4845706,71.0820885 90.2583837,69.8930679 91.6566996,68.3813858 C93.0537512,66.8684333 94.110706,65.1052276 94.8288285,63.0879577 C95.543158,61.0719581 95.9022193,58.9124122 95.9022193,56.605509 C95.9022193,53.796829 95.3117911,51.3857595 94.1296705,49.3684896 C92.9462857,47.35249 91.4051038,45.7137757 89.5061251,44.4536172 C87.6058821,43.194729 85.4565719,42.2750165 83.0544017,41.6982907 C80.6534959,41.1228352 78.2336255,40.833202 75.7973192,40.833202 L73.0019517,40.833202 L73.0019517,34.3520237 L76.2284455,34.3520237 C78.2336255,34.3520237 80.2590342,34.0827156 82.3034075,33.5415588 C84.3452521,33.0016723 86.1734301,32.1556385 87.786677,31.0034572 C89.3986596,29.8525463 90.7059459,28.3573783 91.7098002,26.520494 C92.7136544,24.6836096 93.2143173,22.4694399 93.2143173,19.8767145 C93.2143173,15.772307 91.9424314,12.4046857 89.3986596,9.77639132 C86.8536235,7.14809693 83.4311632,5.83331457 79.1312785,5.83331457 C75.9768498,5.83331457 73.1448176,6.64250913 70.6364462,8.26343887 C68.1280748,9.88436862 66.157031,12.0629693 64.7233147,14.799241 L58.5952521,11.3426973 C60.6724972,7.38183602 63.5222296,4.50201804 67.1419208,2.7007027 C70.7616119,0.900657673 74.7580645,0 79.1312785,0 C81.9961826,0 84.7220136,0.414124684 87.30245,1.24110373 C89.8828865,2.07062342 92.1409265,3.29521298 94.0753056,4.91487241 C96.0096848,6.53453183 97.5331664,8.57085658 98.6444862,11.0187654 C99.7545417,13.4666742 100.312098,16.3490328 100.312098,19.6594896 C100.312098,23.8375758 99.1628492,27.5303993 96.8706731,30.7328788 C94.5759685,33.9391693 91.2066087,36.153339 86.7651225,37.3779286 L86.7651225,37.5938832 C89.2001645,38.024522 91.4051038,38.8349869 93.3761477,40.0240075 C95.3471915,41.2117577 97.0489395,42.6713567 98.4826558,44.3989934 C99.9163721,46.1266301 101.026428,48.0727621 101.816615,50.232308 C102.604274,52.3931242 103,54.698757 103,57.1466658 C103,60.1713004 102.515773,63.0168197 101.547319,65.6806831 C100.58013,68.3458168 99.1097486,70.6692341 97.1399691,72.6483944 C95.1663966,74.6300954 92.7136544,76.1964013 89.775421,77.3473122 C86.834659,78.4994935 83.3944985,79.0762193 79.4536751,79.0762193 C73.7175455,79.0762193 68.8638975,77.8694142 64.8851451,75.4570744 C60.907657,73.0447346 57.9137944,69.2464745 55.9073501,64.0610237 L62.896401,61.7909598" id="Fill-7" fill="#A39068" mask="url(#mask-2)"></path>
                </g>
                <path d="M46,116.5 C46,112.910467 48.9098985,110 52.5,110 C56.0901015,110 59,112.910467 59,116.5 C59,120.089533 56.0901015,123 52.5,123 C48.9098985,123 46,120.089533 46,116.5" id="Fill-9" fill="#A39068"></path>
                <path d="M46,261.5 C46,257.910467 48.9098985,255 52.5,255 C56.0901015,255 59,257.910467 59,261.5 C59,265.089533 56.0901015,268 52.5,268 C48.9098985,268 46,265.089533 46,261.5" id="Fill-10" fill="#A39068"></path>
            </g>
        </g>
    </g>
</svg>