

<svg width="333px" height="137px" viewBox="0 0 333 137" version="1.1" xmlns="http://www.w3.org/2000/svg" xmlns:xlink="http://www.w3.org/1999/xlink">
    <defs>
        <polygon id="path-u7puqmx3wr-1" points="0 0 121 0 121 120 0 120"></polygon>
    </defs>
    <g id="Symbols" stroke="none" stroke-width="1" fill="none" fill-rule="evenodd">
        <g id="Luminary_Logo">
            <path d="M46,65.8653224 L44.5651779,84 L0,84 L0,82.4121596 L8.01844112,82.4121596 L8.01844112,26.5878404 L0,26.5878404 L0,25 L24.3926956,25 L24.3926956,26.5878404 L16.6273736,26.5878404 L16.6273736,82.4121596 L26.5026221,82.4121596 C32.833122,82.3283826 36.5467368,82.3283826 39.7537532,78.4012048 C42.3709983,75.225524 43.299582,71.2134998 44.5651779,65.8653224 L46,65.8653224" id="Fill-1" fill="#A39068"></path>
            <path d="M72.2035614,50 L84.9282323,50 L84.9282323,83.3623647 L91,83.3623647 L91,84.9794367 L78.1930192,84.9794367 L78.1930192,79.6177577 C77.3606967,81.2348296 74.8651484,86 66.2151678,86 C61.3092193,86 58.7306516,84.298698 57.4009224,82.7669453 C54.9883935,80.0429017 54.9053741,76.9790333 54.9053741,72.7232369 L54.9053741,51.6170719 L49,51.6170719 L49,50 L61.7250258,50 L61.7250258,74.7665419 C61.8087547,79.2775699 61.8910645,83.8724649 67.7123549,83.8724649 C69.3766451,83.8724649 71.7047355,83.5322771 73.8667872,81.9152052 C77.7765032,79.1065684 78.1089355,74.5962665 78.1930192,66.8510947 L78.1930192,51.6170719 L72.2035614,51.6170719 L72.2035614,50" id="Fill-2" fill="#A39068"></path>
            <path d="M95,51.6379717 L95,50.0209161 L108.219239,50.0209161 L108.219239,53.935396 C110.311447,51.9781561 114.076135,49 120.099708,49 C122.693731,49 125.454075,49.5954134 127.295374,51.0414692 C128.883982,52.3183404 129.386868,53.5952117 129.721293,54.3616249 C131.980891,51.9781561 135.411155,49 142.020774,49 C146.789808,49 149.131853,50.8722846 150.052681,52.0631114 C151.641288,54.1906251 151.976784,56.7443676 151.976784,59.0417919 L151.976784,83.3829444 L158,83.3829444 L158,85 L139.342877,85 L139.342877,83.3829444 L145.116256,83.3829444 L145.116256,59.7232498 C145.116256,56.7443676 145.116256,55.4674963 144.697244,54.3616249 C143.86136,52.2333851 141.936187,51.2977874 139.426751,51.2977874 C135.912614,51.2977874 133.737603,53.2550273 132.733258,54.5308094 C130.47473,57.4247363 130.390142,60.4889368 130.307696,65.5949696 L130.307696,83.3829444 L135.74558,83.3829444 L135.74558,85 L117.171974,85 L117.171974,83.3829444 L123.111673,83.3829444 L123.111673,60.4036185 C123.111673,57.5107808 123.111673,55.382541 122.274719,53.935396 C121.6901,52.9137538 120.183939,51.3816535 117.506399,51.3816535 C114.661468,51.3816535 112.150962,52.8298877 110.728675,54.7018092 C108.720698,57.2548256 108.470147,60.5738922 108.302756,65.5949696 L108.302756,83.3829444 L114.076135,83.3829444 L114.076135,85 L95,85 L95,83.3829444 L101.442229,83.3829444 L101.442229,51.6379717 L95,51.6379717" id="Fill-3" fill="#A39068"></path>
            <polyline id="Fill-4" fill="#A39068" points="162 50 175.200332 50 175.200332 82.4282067 181 82.4282067 181 84 162 84 162 82.4282067 168.221436 82.4282067 168.221436 51.5717933 162 51.5717933 162 50"></polyline>
            <path d="M203.059576,85 L184,85 L184,83.3829281 L189.988025,83.3829281 L189.988025,51.6376353 L184,51.6376353 L184,50.0205633 L196.903539,50.0205633 L196.903539,55.4671985 C198.083587,53.7651704 201.457877,49 208.62631,49 C212.589544,49 215.710196,50.6159827 217.397161,52.5732424 C220.011975,55.5532438 219.92671,59.2118055 219.92671,62.2756739 L219.92671,83.3829281 L226,83.3829281 L226,85 L207.108077,85 L207.108077,83.3829281 L213.011196,83.3829281 L213.011196,60.3184142 C212.927009,57.339502 212.927009,56.2339825 212.674091,55.1270107 C211.578229,51.2974475 208.035206,51.2974475 207.108077,51.2974475 C205.337285,51.2974475 203.227949,51.977823 201.457877,53.2547072 C197.156457,56.5741703 196.987005,61.5952984 196.903539,68.3188176 L196.903539,83.3829281 L203.059576,83.3829281 L203.059576,85" id="Fill-5" fill="#A39068"></path>
            <path d="M252.540292,67.1173765 C250.183739,67.1173765 247.152757,67.202283 244.03774,68.6485962 C239.745165,70.6047111 238.817556,73.6667876 238.817556,76.2179737 C238.817556,80.4712811 241.681187,82.257583 244.459708,82.257583 C246.816261,82.257583 248.499102,81.1516215 249.257207,80.3856489 C252.28783,77.7491934 252.372224,74.3471281 252.540292,70.1798158 L252.540292,67.1173765 Z M259.274891,78.6853419 C259.360003,82.0877701 259.443319,83.7038962 261.716915,83.7038962 C262.979944,83.7038962 263.567825,83.02283 264.241895,82.3424895 L265,83.3635445 C263.31644,85.148758 261.464452,86 259.022788,86 C253.130328,86 252.540292,80.8965392 252.28783,78.6004354 C249.931277,83.7038962 246.058156,86 241.175545,86 C234.945512,86 232,82.1726765 232,77.7491934 C232,75.5379961 232.589677,72.3910131 236.124506,69.6685626 C238.987061,67.3724588 243.869672,65.6710633 252.456258,65.6710633 L252.456258,57.0806308 C252.456258,55.1234272 252.456258,50.6161262 246.310618,50.6161262 C242.523327,50.6161262 239.155129,52.9971364 239.155129,54.2732738 C239.155129,54.6132626 239.576019,55.2943288 239.997628,55.8044934 C240.670621,56.5704661 240.923083,57.7606084 240.923083,58.3556796 C240.923083,59.8868992 239.828122,61.9290092 237.639638,61.9290092 C235.283085,61.9290092 234.440587,59.6318169 234.440587,58.0156907 C234.440587,53.5922076 239.828122,49 247.489254,49 C251.362375,49 255.234778,50.2761373 257.254835,52.5722411 C259.360003,54.95434 259.274891,57.8455149 259.274891,60.9079542 L259.274891,78.6853419 L259.274891,78.6853419 Z" id="Fill-6" fill="#A39068"></path>
            <path d="M268,49.7711543 L281.281371,49.7711543 L281.281371,58.856442 C282.63419,55.1710629 284.833198,49 290.923951,49 C294.307262,49 296,51.3141943 296,53.9706363 C296,56.5426134 294.477582,58.4282667 292.44673,58.4282667 C290.247722,58.4282667 289.401173,56.5426134 289.231935,54.2287847 L289.231935,53.4565334 C289.063058,52.7713067 288.89382,52.3420344 288.13207,52.3420344 C287.541362,52.3420344 285.679387,52.6001828 283.903293,56.6281753 C281.450609,62.3717942 281.365088,67.5146514 281.281371,72.8286324 L281.281371,83.3713981 L287.286604,83.3713981 L287.286604,85 L268,85 L268,83.3713981 L274.345512,83.3713981 L274.345512,51.3997562 L268,51.3997562 L268,49.7711543" id="Fill-7" fill="#A39068"></path>
            <path d="M333,50.6060554 L329.021241,50.6060554 L312.08804,99.1248671 C310.478261,103.266211 308.447346,108 303.198317,108 C299.641417,108 298.371147,105.464711 298.371147,103.436048 C298.371147,101.238629 299.81081,99.3790811 302.265389,99.3790811 C303.535659,99.3790811 304.636897,99.9704441 305.399348,100.899677 C306.414625,102.252601 306.584018,102.421355 307.26087,102.421355 C308.785049,102.421355 309.207991,101.15317 310.224351,98.2789295 L314.54298,84.3324981 L300.318268,50.6060554 L296,50.6060554 L296,49 L314.289071,49 L314.289071,50.6060554 L308.107837,50.6060554 L318.01392,74.8660021 L326.82021,50.6060554 L320.46886,50.6060554 L320.46886,49 L333,49 L333,50.6060554" id="Fill-8" fill="#A39068"></path>
            <path d="M32.059644,25.3311719 L32.059644,29.4233594 L33.2690096,29.4233594 C33.4929125,29.4233594 34.030207,29.3597266 34.3983062,29.0911328 C34.5946742,28.9515625 34.9247317,28.4924219 34.9247317,27.3966016 C34.9247317,26.6952344 34.858068,26.1854688 34.6098909,25.8539453 C34.2294733,25.3561328 33.6494271,25.3311719 33.2298809,25.3311719 L32.059644,25.3311719 Z M32.059644,29.7928516 L32.059644,33.6684766 L33.2965445,33.6684766 L33.2965445,34 L29,34 L29,33.6684766 L30.1151669,33.6684766 L30.1151669,25.3311719 L29,25.3311719 L29,25 L33.7943481,25 C34.5182283,25.0249609 35.3718129,25.0379688 36.0797518,25.5477344 C36.6851592,25.9938672 37,26.7201953 37,27.4475781 C37,27.7660937 36.9619582,28.6330469 36.093157,29.2447656 C35.4102169,29.7299219 34.5439518,29.7928516 33.845795,29.7928516 L32.059644,29.7928516 L32.059644,29.7928516 Z" id="Fill-9" fill="#A39068"></path>
            <path d="M43.089203,25.3670616 L43.089203,28.9929307 L44.2163051,28.9929307 C44.6001706,28.9799961 45.2505484,28.9670616 45.6066293,28.4349971 C45.7144772,28.2951641 45.8464538,28.0165469 45.8464538,27.1163721 C45.8464538,25.7599922 45.4750183,25.3918819 44.2035096,25.3670616 L43.089203,25.3670616 Z M40,25 L44.6396539,25 C45.3689983,25.0248204 46.1246649,25.0377549 46.7337314,25.3422412 C47.4630758,25.7093028 47.8345113,26.3693144 47.8345113,27.154127 C47.8345113,28.0165469 47.277358,28.8282773 46.006215,29.0810254 C45.6991226,29.1446494 45.3814282,29.1705185 45.0772605,29.1953389 C45.3949549,29.2715479 45.7269071,29.3481064 46.0186449,29.4620703 C46.2975871,29.5763838 46.5480136,29.7281025 46.7739459,29.9175762 C47.4630758,30.5010293 47.5815257,31.033793 47.6228369,32.2 C47.6487936,33.0243154 47.6747502,33.5434453 48.2860102,33.5434453 C48.5517914,33.5434453 48.8296369,33.4291319 49,33.3539716 L49,33.7210332 C48.4457714,33.8856865 47.9942725,34 47.3705825,34 C46.999147,34 46.4701438,33.9748301 46.006215,33.4291319 C45.5547161,32.9103515 45.4874482,32.2 45.4750183,31.6798213 C45.4614916,31.3256943 45.4362661,31.0715479 45.3814282,30.6408623 C45.2633439,29.5505147 44.6798684,29.3351719 43.7907629,29.3351719 L43.089203,29.3351719 L43.089203,33.6196543 L44.4020229,33.6196543 L44.4020229,33.9493105 L40,33.9493105 L40,33.6196543 L41.1271021,33.6196543 L41.1271021,25.3422412 L40,25.3422412 L40,25 L40,25 Z" id="Fill-10" fill="#A39068"></path>
            <path d="M55.1240076,29.6142578 L55.1240076,33.6688281 L56.6200845,33.6688281 C57.172385,33.6558203 57.7228284,33.6558203 58.209759,33.42625 C59.2059056,32.9671094 59.4759274,31.8966016 59.6772366,31.1569141 L60,31.1569141 L59.811319,34 L52,34 L52,33.6688281 L53.1306003,33.6688281 L53.1306003,25.3311719 L52,25.3311719 L52,25 L59.4759274,25 L59.6772366,27.2942969 L59.3399879,27.2942969 C59.1639352,26.7201953 59.0859371,26.44 58.9362552,26.1854688 C58.4775523,25.433125 57.7228284,25.3941016 57.1597567,25.3691406 L55.1240076,25.3691406 L55.1240076,29.2321094 L55.4749988,29.2321094 C56.983704,29.1941406 57.172385,28.8109375 57.2670969,27.7021094 L57.6288593,27.7021094 L57.6288593,31.3355078 L57.2670969,31.3355078 C57.238869,30.9273437 57.2124983,30.4942188 56.9974465,30.175 C56.6464553,29.6532813 56.0800409,29.6272656 55.4876271,29.6142578 L55.1240076,29.6142578" id="Fill-11" fill="#A39068"></path>
            <path d="M68.2474905,27.7171551 L67.844929,27.7171551 C67.7573555,27.2554898 67.6690897,26.7795848 67.3319488,26.2770741 C66.8286604,25.569587 66.1644168,25.39309 65.6860505,25.39309 C64.6583593,25.39309 64.0550363,26.154538 64.0550363,27.0373979 C64.0550363,27.4728322 64.2557979,27.8797872 64.5829007,28.1383497 C64.8341987,28.3429514 65.5496712,28.5734093 66.2519903,28.790377 C67.0166147,29.0350746 67.8328141,29.3202428 68.2838352,29.7968972 C68.5991693,30.1221614 69,30.8019186 69,31.8485348 C69,32.6088586 68.7622015,33.3703065 68.3111803,33.954508 C67.6569747,34.7830323 66.8798892,35 66.0626514,35 C64.958117,35 64.3676012,34.5799296 63.8283143,34.1853406 L63.4029076,34.7968972 L63.0391139,34.7968972 L63.0391139,32.1471933 L63.4029076,32.1471933 C63.5403254,32.5811287 63.7033576,33.1256089 64.1308411,33.6288691 C64.6192454,34.2126958 65.322603,34.5521997 66.0252683,34.5521997 C67.1294566,34.5521997 67.8840429,33.7371656 67.8840429,32.73102 C67.8840429,31.5761073 66.992731,31.2643334 66.2384908,31.0057708 L65.6860505,30.8292738 C64.2803738,30.366859 63,29.9329236 63,28.042794 C63,27.2142697 63.2004154,26.4663119 63.7791623,25.8285243 C64.3558325,25.1899873 64.9955002,25 65.7372793,25 C66.6164763,25 67.0920734,25.3387544 67.5323641,25.6377876 L67.9595016,25.1356517 L68.2474905,25.1356517 L68.2474905,27.7171551" id="Fill-12" fill="#A39068"></path>
            <polyline id="Fill-13" fill="#A39068" points="75.9416884 25.3311719 75.9416884 33.6684766 77 33.6684766 77 34 73 34 73 33.6684766 74.0604003 33.6684766 74.0604003 25.3311719 73 25.3311719 73 25 77 25 77 25.3311719 75.9416884 25.3311719"></polyline>
            <path d="M83.036754,25.3691406 L83.036754,33.6554687 L84.4745269,33.6554687 C85.5291121,33.6554687 86.4021106,33.3373047 86.6644833,31.8582813 C86.797671,31.1059375 86.8358806,30.3416406 86.8358806,29.5762891 C86.8358806,29.0791797 86.8100437,28.6460547 86.797671,28.3398437 C86.6921397,26.8351563 86.4796215,26.44 86.3482533,26.2104297 C85.8864629,25.4201172 85.2525473,25.3691406 84.6852256,25.3691406 L83.036754,25.3691406 Z M80,33.6554687 L81.0833333,33.6554687 L81.0833333,25.3311719 L80,25.3311719 L80,25 L84.6852256,25 C85.5571325,25.0249609 86.3864629,25.050625 87.2852984,25.6753516 C88.5505822,26.5676172 89,28.1102734 89,29.6272656 C89,30.2389844 88.9203057,31.1059375 88.4203057,32.0618359 C87.4163028,33.9750391 85.8864629,34 84.7256186,34 L80,34 L80,33.6554687 L80,33.6554687 Z" id="Fill-14" fill="#A39068"></path>
            <path d="M95.1240076,29.6142578 L95.1240076,33.6688281 L96.6200845,33.6688281 C97.172385,33.6558203 97.7228284,33.6558203 98.209759,33.42625 C99.2059056,32.9671094 99.4759274,31.8966016 99.6772366,31.1569141 L100,31.1569141 L99.811319,34 L92,34 L92,33.6688281 L93.1306003,33.6688281 L93.1306003,25.3311719 L92,25.3311719 L92,25 L99.4759274,25 L99.6772366,27.2942969 L99.3399879,27.2942969 C99.1639352,26.7201953 99.0859371,26.44 98.9362552,26.1854688 C98.4775523,25.433125 97.7228284,25.3941016 97.1597567,25.3691406 L95.1240076,25.3691406 L95.1240076,29.2321094 L95.4749988,29.2321094 C96.983704,29.1941406 97.172385,28.8109375 97.2670969,27.7021094 L97.6288593,27.7021094 L97.6288593,31.3355078 L97.2670969,31.3355078 C97.238869,30.9273437 97.2124983,30.4942188 96.9974465,30.175 C96.6464553,29.6532813 96.0800409,29.6272656 95.4876271,29.6142578 L95.1240076,29.6142578" id="Fill-15" fill="#A39068"></path>
            <path d="M106.019139,25 L110.513325,30.7206407 L110.513325,26.0255197 C110.52568,25.4558641 110.498062,25.3288086 109.774893,25.3288086 L109.364249,25.3288086 L109.364249,25 L112,25 L112,25.3288086 L111.579908,25.3288086 C111.000283,25.3033276 110.959218,25.4935619 110.946499,26.3159324 L110.946499,34 L110.631067,34 L104.555358,26.1263962 L104.555358,32.7975101 C104.568077,33.3671657 104.701809,33.5821827 105.201123,33.6069656 L105.872688,33.6069656 L105.872688,33.9368213 L103,33.9368213 L103,33.6069656 L103.473512,33.6069656 C104.042599,33.5821827 104.106921,33.3790335 104.120367,32.8222929 L104.120367,26.1263962 C104.106921,25.5696556 104.106921,25.3665064 103.461156,25.3417235 L103,25.3288086 L103,25 L106.019139,25" id="Fill-16" fill="#A39068"></path>
            <path d="M120.082769,33.6688281 L120.082769,34 L115.841879,34 L115.841879,33.6688281 L117.054341,33.6688281 L117.054341,25.3694922 C116.102033,25.3445313 115.558198,25.3694922 115.038571,25.9172266 C114.507011,26.5039844 114.421089,27.2433203 114.370626,27.7791016 L114,27.7791016 L114.184802,25 L121.763713,25 L122,27.7791016 L121.629374,27.7791016 C121.578911,27.3073047 121.504582,26.670625 121.070878,26.0838672 C120.553979,25.3951563 119.98389,25.3571875 118.884627,25.3694922 L118.884627,33.6688281 L120.082769,33.6688281" id="Fill-17" fill="#A39068"></path>
            <path d="M125.513139,28.7340886 C126.444412,27.8157281 126.444412,27.2962346 126.466359,26.4745085 C126.36067,26.6427857 126.183656,26.9096968 125.78458,26.9096968 C125.323708,26.9096968 125,26.5341553 125,26.014995 C125,25.4718427 125.333815,25 125.879584,25 C126.539417,25 127,25.628124 127,26.5588137 C127,27.8877041 126.026278,28.7217594 125.690153,29 L125.513139,28.7340886" id="Fill-18" fill="#A39068"></path>
            <path d="M135.245327,27.7171551 L134.84445,27.7171551 C134.756866,27.2554898 134.66859,26.7795848 134.329333,26.2770741 C133.826333,25.569587 133.162012,25.39309 132.685668,25.39309 C131.655781,25.39309 131.052389,26.154538 131.052389,27.0373979 C131.052389,27.4728322 131.254904,27.8797872 131.580314,28.1383497 C131.831641,28.3429514 132.547196,28.5734093 133.249596,28.790377 C134.017078,29.0350746 134.832333,29.3202428 135.284445,29.7968972 C135.597046,30.1221614 136,30.8019186 136,31.8485348 C136,32.6088586 135.760097,33.3703065 135.309024,33.954508 C134.656474,34.7830323 133.877568,35 133.061966,35 C131.958343,35 131.367067,34.5799296 130.827371,34.1853406 L130.400185,34.7968972 L130.036349,34.7968972 L130.036349,32.1471933 L130.400185,32.1471933 C130.539349,32.5811287 130.700669,33.1256089 131.128202,33.6288691 C131.618394,34.2126958 132.321832,34.5521997 133.022848,34.5521997 C134.128895,34.5521997 134.881837,33.7371656 134.881837,32.73102 C134.881837,31.5761073 133.990422,31.2643334 133.237826,31.0057708 L132.685668,30.8292738 C131.279483,30.366859 130,29.9329236 130,28.042794 C130,27.2142697 130.1994,26.4663119 130.776483,25.8285243 C131.35495,25.1899873 131.994692,25 132.734826,25 C133.614124,25 134.089776,25.3387544 134.530118,25.6377876 L134.957304,25.1356517 L135.245327,25.1356517 L135.245327,27.7171551" id="Fill-19" fill="#A39068"></path>
            <polyline id="Fill-20" fill="#A39068" points="118.038069 106.198336 107.040776 106.198336 107.040776 119.167531 110.628775 119.167531 110.628775 120 99.0399627 120 99.0399627 119.167531 102.428869 119.167531 102.428869 92.8324687 99 92.8324687 99 92 110.509247 92 110.509247 92.8324687 107.040776 92.8324687 107.040776 105.127502 118.038069 105.127502 118.038069 92.8324687 114.45079 92.8324687 114.45079 92 125.882272 92 125.882272 92.8324687 122.571131 92.8324687 122.571131 119.167531 126 119.167531 126 120 114.529635 120 114.529635 119.167531 118.038069 119.167531 118.038069 106.198336"></polyline>
            <path d="M147.019132,118.927041 C147.801573,118.927041 148.624067,118.767749 149.368602,118.489803 C153.51826,117.019519 153.75285,113.365219 153.75285,105.618653 C153.75285,100.891394 153.596576,97.7527089 152.970408,96.0853958 C151.716642,92.5490228 148.310804,92.0722329 147.019132,92.0722329 C145.688123,92.0722329 142.281212,92.5490228 141.029234,96.0853958 C140.403424,97.7527089 140.245005,100.891394 140.245005,105.618653 C140.245005,113.365219 140.481382,117.019519 144.63104,118.489803 C145.414197,118.767749 146.196281,118.927041 147.019132,118.927041 M135.743463,100.335865 C137.074471,95.965654 141.10755,91 147.019132,91 C151.755979,91 154.69228,94.1383224 155.984668,95.886189 C158.529033,99.2629063 159,102.75864 159,105.5 C159,108.240997 158.529033,111.736368 155.984668,115.113085 C154.731617,116.78185 151.7946,120 147.019132,120 C145.962049,120 144.944303,119.840344 143.965536,119.523573 C140.284699,118.410338 135,113.921111 135,105.5 C135,103.752133 135.234232,102.003178 135.743463,100.335865" id="Fill-21" fill="#A39068"></path>
            <path d="M189.952835,92.8324794 L189.952835,120 L189.219148,120 L174.905544,97.4727009 C174.096796,96.2033328 173.131937,94.7358071 172.552246,93.70517 L172.552246,119.167521 L176.102279,119.167521 L176.102279,120 L168,120 L168,119.167521 L171.549328,119.167521 L171.549328,92.8324794 L168.115233,92.8324794 L168.115233,92 L176.680913,92 L184.667254,104.651659 C185.399884,105.761631 186.132867,106.911815 186.826734,108.062723 C187.13649,108.577861 188.641219,111.155359 188.987976,111.711432 L188.987976,92.8324794 L185.746994,92.8324794 L185.746994,92 L193,92 L193,92.8324794 L189.952835,92.8324794" id="Fill-22" fill="#A39068"></path>
            <path d="M213.01949,118.927041 C213.801573,118.927041 214.624424,118.767749 215.36896,118.489803 C219.518618,117.019519 219.75285,113.365219 219.75285,105.618653 C219.75285,100.891394 219.596934,97.7527089 218.970766,96.0853958 C217.717,92.5490228 214.311162,92.0722329 213.01949,92.0722329 C211.688481,92.0722329 208.28157,92.5490228 207.029592,96.0853958 C206.403424,97.7527089 206.245362,100.891394 206.245362,105.618653 C206.245362,113.365219 206.48174,117.019519 210.631398,118.489803 C211.414555,118.767749 212.196639,118.927041 213.01949,118.927041 M201.74382,100.335865 C203.074829,95.965654 207.10755,91 213.01949,91 C217.756336,91 220.692638,94.1383224 221.985025,95.886189 C224.529391,99.2629063 225,102.75864 225,105.5 C225,108.240997 224.529391,111.736368 221.985025,115.113085 C220.731974,116.78185 217.794958,120 213.01949,120 C211.962407,120 210.94466,119.840344 209.965536,119.523573 C206.285057,118.410338 201,113.921111 201,105.5 C201,103.752133 201.234589,102.003178 201.74382,100.335865" id="Fill-23" fill="#A39068"></path>
            <path d="M242.185983,92.8664528 L242.185983,104.563185 L243.630526,104.563185 C245.355472,104.563185 247.76402,104.563185 249.209296,103.538764 C250.694157,102.514343 251.135107,100.624128 251.135107,98.8126871 C251.135107,97.6310779 250.854336,95.8595635 250.092295,94.7962951 C248.646653,92.8265868 245.99912,92.8664528 243.550253,92.8664528 L242.185983,92.8664528 Z M259,119.290675 C257.876915,119.881659 256.712411,120 255.99069,120 C254.746646,120 253.30247,119.644978 252.1387,118.621276 C250.211788,116.967023 250.131882,114.603805 250.092295,112.438421 L250.011289,110.705394 C249.931017,109.130994 249.770838,106.885757 247.402243,105.94083 C246.239572,105.468546 244.955209,105.428619 242.226303,105.507033 L242.226303,118.975579 L245.797522,118.975579 L245.797522,119.803245 L234.119493,119.803245 L234.119493,118.975579 L237.732131,118.975579 L237.732131,92.8265868 L234,92.8265868 L234,92 L245.115387,92 C248.285976,92 251.2557,92.0399265 253.582142,93.6931002 C255.388461,94.9930501 256.031009,96.7656437 256.031009,98.4188174 C256.031009,102.396722 252.298878,104.838714 247.362657,105.15309 C250.292061,105.54696 251.937101,106.767416 252.57965,107.318474 C255.188696,109.563712 255.147277,112.399574 255.10769,114.249862 L255.10769,115.352697 C255.067004,116.376399 255.10769,116.967023 255.228282,117.479594 C255.429147,118.227406 255.99069,119.015146 257.033502,119.015146 C257.395279,119.015146 257.876915,118.896805 258.719229,118.581709 L259,119.290675 L259,119.290675 Z" id="Fill-24" fill="#A39068"></path>
            <g id="Group-28" transform="translate(162.000000, 0.000000)">
                <mask id="mask-u7puqmx3wr-2" fill="white">
                    <use xlink:href="#path-u7puqmx3wr-1"></use>
                </mask>
                <g id="Clip-26"></g>
                <path d="M119.400164,91.4787532 L119.633652,98.7066671 L118.579927,98.7066671 C118.268373,97.0654517 117.995317,95.5812563 116.395481,94.1356022 C115.185979,93.0411018 113.663854,92.4943868 112.219795,92.4943868 C109.761223,92.4943868 106.872749,94.0959903 106.872749,97.4958292 C106.872749,100.543087 109.215112,101.167955 112.491781,102.066894 L113.975408,102.418048 C116.629325,103.161395 121,104.332621 121,110.544901 C121,115.467476 118.151094,120 112.765906,120 C110.345834,120 108.355663,119.139602 106.598981,117.499457 L105.116423,119.530368 L104.219189,119.530368 L103.984632,111.01382 L105.116423,111.01382 C105.389479,112.655035 105.622966,114.13923 106.795039,115.740834 C107.379649,116.561977 109.25361,118.866245 112.805118,118.866245 C116.746604,118.866245 118.775986,116.131599 118.775986,112.849526 C118.775986,108.903686 115.575244,108.082899 113.429296,107.497643 L111.867959,107.067266 C110.072778,106.637959 108.550652,106.207582 107.379649,105.387509 C105.545256,104.137416 104.648022,102.14469 104.648022,99.8000969 C104.648022,95.6986644 107.419217,91.4787532 112.297505,91.4787532 C114.756077,91.4787532 116.551258,92.6117949 117.409994,93.1977648 L118.814484,91.4787532 L119.400164,91.4787532" id="Fill-25" fill="#A39068" mask="url(#mask-u7puqmx3wr-2)"></path>
                <path d="M8.78119901,-0.000713727053 C7.43837764,10.0603397 -0.272062009,15.3133708 0.00741023688,24.4915438 C0.197765058,30.7723419 2.92867944,35.3294891 6.7400535,36.5281937 C5.03327656,35.5832191 3.84551952,33.4919988 3.84551952,31.0624719 C3.84551952,26.2180496 9.01860783,22.2104722 9.15656161,20.4661232 C11.1920036,21.9014283 13.7197303,28.1390459 13.7197303,31.0624719 C13.7197303,33.3670966 12.6521035,35.3658892 11.0857756,36.3729581 C14.7809406,34.8323782 17.4384222,29.6621395 17.5624736,23.518377 C17.6861686,17.3499909 12.5430238,3.55578818 8.78119901,-0.000713727053" id="Fill-27" fill="#A39068" mask="url(#mask-u7puqmx3wr-2)"></path>
            </g>
            <path d="M159,129 L159,129.288523 L158.684326,129.288523 C158.113904,129.31045 158.101718,129.399548 158.088771,130.253285 L158.088771,134.13704 C158.101718,135.235448 158.101718,135.867485 157.324908,136.444879 C156.62121,136.96624 155.698177,137 155.237041,137 C154.544386,137 153.646104,136.91125 152.966776,136.533629 C152.007187,136.000435 152.007187,135.369094 152.020515,134.325676 L152.020515,129.288523 L151,129.288523 L151,129 L154.945357,129 L154.945357,129.288523 L153.791566,129.288523 L153.791566,134.503524 C153.791566,135.00261 153.791566,135.369094 153.925984,135.668755 C154.180351,136.311929 154.86006,136.589663 155.625065,136.589663 C156.231282,136.589663 156.839021,136.455669 157.23885,136.034195 C157.676758,135.580005 157.676758,135.079875 157.676758,134.015227 L157.676758,130.098408 C157.676758,129.444444 157.651625,129.321587 157.14251,129.299661 L156.66957,129.288523 L156.66957,129 L159,129" id="Fill-29" fill="#A39068"></path>
            <path d="M166.32228,136.705336 L166.32228,137 L162.611547,137 L162.611547,136.705336 L163.671999,136.705336 L163.671999,129.328431 C162.839248,129.306038 162.363147,129.328431 161.908425,129.816102 C161.443863,130.337184 161.367171,130.994046 161.324413,131.469276 L161,131.469276 L161.161867,129 L167.794357,129 L168,131.469276 L167.674569,131.469276 C167.631811,131.050207 167.566657,130.483983 167.187948,129.9629 C166.734245,129.350824 166.236426,129.316346 165.273366,129.328431 L165.273366,136.705336 L166.32228,136.705336" id="Fill-30" fill="#A39068"></path>
            <polyline id="Fill-31" fill="#A39068" points="182.039341 129.294651 182.039341 136.70606 183 136.70606 183 137 179.368702 137 179.368702 136.70606 180.396302 136.70606 180.396302 133.04585 177.614562 133.04585 177.614562 136.70606 178.664593 136.70606 178.664593 137 175 137 175 136.70606 175.960308 136.70606 175.960308 129.294651 175 129.294651 175 129 178.664593 129 178.664593 129.294651 177.614562 129.294651 177.614562 132.693975 180.396302 132.693975 180.396302 129.294651 179.368702 129.294651 179.368702 129 183 129 183 129.294651 182.039341 129.294651"></polyline>
            <path d="M188.733844,133.101835 L188.733844,136.704981 L190.042555,136.704981 C190.524868,136.693962 191.008659,136.693962 191.432946,136.489936 C192.304435,136.081886 192.539863,135.130359 192.716895,134.472431 L193,134.472431 L192.833685,137 L186,137 L186,136.704981 L186.990496,136.704981 L186.990496,129.294664 L186,129.294664 L186,129 L192.539863,129 L192.716895,131.039543 L192.422334,131.039543 C192.268585,130.529835 192.197624,130.279957 192.069007,130.053539 C191.668374,129.385302 191.008659,129.350824 190.513411,129.328431 L188.733844,129.328431 L188.733844,132.76203 L189.040232,132.76203 C190.359662,132.727551 190.524868,132.387746 190.607656,131.401742 L190.924762,131.401742 L190.924762,134.63167 L190.607656,134.63167 C190.583263,134.268761 190.561088,133.884169 190.372228,133.600524 C190.064731,133.135602 189.570591,133.113209 189.053168,133.101835 L188.733844,133.101835" id="Fill-32" fill="#A39068"></path>
            <path d="M197.197902,134.541032 L199.569813,134.541032 L198.372549,131.36833 L197.197902,134.541032 Z M199.27907,129 L202.117556,136.705336 L203,136.705336 L203,137 L199.27907,137 L199.27907,136.705336 L200.372731,136.705336 L199.686183,134.835696 L197.092476,134.835696 L196.639033,136.082241 C196.580666,136.252499 196.534337,136.387924 196.534337,136.501311 C196.534337,136.705336 196.720748,136.705336 196.987779,136.705336 L197.557957,136.705336 L197.557957,137 L195,137 L195,136.705336 L195.510716,136.705336 C196.011218,136.660195 196.022526,136.614342 196.313634,135.911627 L198.895668,129 L199.27907,129 L199.27907,129 Z" id="Fill-33" fill="#A39068"></path>
            <path d="M207.915813,129.294651 L207.915813,136.70606 L208.921388,136.70606 C209.637234,136.69362 210.391711,136.66021 211.044487,135.832771 C211.434734,135.345833 211.534069,134.926071 211.647201,134.496001 L212,134.496001 L211.735499,137 L205,137 L205,136.70606 L206.068645,136.70606 L206.068645,129.294651 L205,129.294651 L205,129 L208.971055,129 L208.971055,129.294651 L207.915813,129.294651" id="Fill-34" fill="#A39068"></path>
            <path d="M217.32228,136.705336 L217.32228,137 L213.611547,137 L213.611547,136.705336 L214.671999,136.705336 L214.671999,129.328431 C213.839248,129.306038 213.363147,129.328431 212.908765,129.816102 C212.444202,130.337184 212.367171,130.994046 212.324413,131.469276 L212,131.469276 L212.161867,129 L218.794357,129 L219,131.469276 L218.674908,131.469276 C218.631811,131.050207 218.566657,130.483983 218.187948,129.9629 C217.734245,129.350824 217.236766,129.316346 216.273706,129.328431 L216.273706,136.705336 L217.32228,136.705336" id="Fill-35" fill="#A39068"></path>
            <polyline id="Fill-36" fill="#A39068" points="229.039341 129.294651 229.039341 136.70606 230 136.70606 230 137 226.368352 137 226.368352 136.70606 227.396302 136.70606 227.396302 133.04585 224.614562 133.04585 224.614562 136.70606 225.664593 136.70606 225.664593 137 222 137 222 136.70606 222.960308 136.70606 222.960308 129.294651 222 129.294651 222 129 225.664593 129 225.664593 129.294651 224.614562 129.294651 224.614562 132.693975 227.396302 132.693975 227.396302 129.294651 226.368352 129.294651 226.368352 129 230 129 230 129.294651 229.039341 129.294651"></polyline>
            <path d="M241.372006,131.173976 L241.037667,131.173976 C240.964171,130.804032 240.89166,130.423518 240.608504,130.021523 C240.190498,129.455867 239.636,129.315049 239.238664,129.315049 C238.380012,129.315049 237.878338,129.923667 237.878338,130.630141 C237.878338,130.978264 238.046,131.304224 238.318,131.510506 C238.527659,131.673827 239.123827,131.858969 239.709495,132.03286 C240.346676,132.22755 241.027495,132.456676 241.403832,132.836168 C241.66566,133.098368 242,133.64118 242,134.477901 C242,135.086519 241.801168,135.695819 241.424831,136.162596 C240.880504,136.825768 240.231839,137 239.552333,137 C238.632325,137 238.140167,136.66347 237.69099,136.347398 L237.334996,136.836679 L237.031826,136.836679 L237.031826,134.717598 L237.334996,134.717598 C237.449176,135.064698 237.585668,135.500107 237.941335,135.902101 C238.34917,136.368879 238.935494,136.640967 239.520178,136.640967 C240.440843,136.640967 241.068837,135.989388 241.068837,135.185057 C241.068837,134.260708 240.32699,134.011124 239.698996,133.803819 L239.238664,133.663001 C238.066671,133.293057 237,132.945617 237,131.435153 C237,130.771981 237.167334,130.174274 237.648665,129.66249 C238.129667,129.151728 238.663495,129 239.280005,129 C240.012665,129 240.409673,129.272088 240.776166,129.510762 L241.131833,129.108767 L241.372006,129.108767 L241.372006,131.173976" id="Fill-37" fill="#A39068"></path>
            <path d="M247.197967,134.541032 L249.569553,134.541032 L248.372088,131.36833 L247.197967,134.541032 Z M249.278484,129 L252.116582,136.705336 L253,136.705336 L253,137 L249.278484,137 L249.278484,136.705336 L250.371997,136.705336 L249.685542,134.835696 L247.09219,134.835696 L246.639174,136.082241 C246.58045,136.252499 246.534491,136.387924 246.534491,136.501311 C246.534491,136.705336 246.720512,136.705336 246.987507,136.705336 L247.557972,136.705336 L247.557972,137 L245,137 L245,136.705336 L245.511011,136.705336 C246.011079,136.660195 246.022751,136.614342 246.313455,135.911627 L248.8955,129 L249.278484,129 L249.278484,129 Z" id="Fill-38" fill="#A39068"></path>
            <path d="M256.681977,129 L260.676833,134.085808 L260.676833,129.911281 C260.688591,129.405171 260.665074,129.292584 260.020209,129.292584 L259.658277,129.292584 L259.658277,129 L262,129 L262,129.292584 L261.624839,129.292584 C261.11005,129.270349 261.07551,129.438346 261.062649,130.170689 L261.062649,137 L260.782289,137 L255.381958,130.001632 L255.381958,135.930957 C255.394819,136.437067 255.511666,136.628711 255.956642,136.650946 L256.553371,136.650946 L256.553371,136.94353 L254,136.94353 L254,136.650946 L254.420724,136.650946 C254.925593,136.628711 254.984384,136.448361 254.99504,135.953192 L254.99504,130.001632 C254.984384,129.506463 254.984384,129.326113 254.410068,129.303878 L254,129.292584 L254,129 L256.681977,129" id="Fill-39" fill="#A39068"></path>
            <path d="M270.197902,134.541032 L272.569813,134.541032 L271.372549,131.36833 L270.197902,134.541032 Z M272.27907,129 L275.117556,136.705336 L276,136.705336 L276,137 L272.27907,137 L272.27907,136.705336 L273.372731,136.705336 L272.686183,134.835696 L270.092476,134.835696 L269.639033,136.082241 C269.580666,136.252499 269.534337,136.387924 269.534337,136.501311 C269.534337,136.705336 269.720748,136.705336 269.987779,136.705336 L270.558322,136.705336 L270.558322,137 L268,137 L268,136.705336 L268.510716,136.705336 C269.011218,136.660195 269.022526,136.614342 269.313634,135.911627 L271.895668,129 L272.27907,129 L272.27907,129 Z" id="Fill-40" fill="#A39068"></path>
            <path d="M280.682221,129 L284.676526,134.085808 L284.676526,129.911281 C284.688284,129.405171 284.665136,129.292584 284.019933,129.292584 L283.658017,129.292584 L283.658017,129 L286,129 L286,129.292584 L285.624489,129.292584 C285.11009,129.270349 285.075185,129.438346 285.062692,130.170689 L285.062692,137 L284.781978,137 L279.382262,130.001632 L279.382262,135.930957 C279.394755,136.437067 279.511597,136.628711 279.956552,136.650946 L280.553621,136.650946 L280.553621,136.94353 L278,136.94353 L278,136.650946 L278.420705,136.650946 C278.92555,136.628711 278.984706,136.448361 278.995361,135.953192 L278.995361,130.001632 C278.984706,129.506463 278.984706,129.326113 278.410049,129.303878 L278,129.292584 L278,129 L280.682221,129" id="Fill-41" fill="#A39068"></path>
            <path d="M293.32228,136.705336 L293.32228,137 L289.611547,137 L289.611547,136.705336 L290.671999,136.705336 L290.671999,129.328431 C289.839248,129.306038 289.363147,129.328431 288.908425,129.816102 C288.444202,130.337184 288.367171,130.994046 288.324413,131.469276 L288,131.469276 L288.161867,129 L294.794357,129 L295,131.469276 L294.674908,131.469276 C294.631811,131.050207 294.566657,130.483983 294.187948,129.9629 C293.734245,129.350824 293.236426,129.316346 292.273706,129.328431 L292.273706,136.705336 L293.32228,136.705336" id="Fill-42" fill="#A39068"></path>
            <path d="M300.999819,129.293569 C299.13986,129.293569 298.966191,131.065209 298.966191,132.804799 C298.966191,133.739036 299.011874,134.870008 299.231226,135.457145 C299.60068,136.522312 300.306232,136.717342 301.058192,136.717342 C301.682166,136.717342 302.398232,136.597664 302.791253,135.413161 C302.964197,134.891489 303.022207,134.326173 303.022207,132.956527 C303.022207,130.727997 302.837299,129.293569 300.999819,129.293569 M304.028325,135.684908 C303.137865,136.717342 302.05162,137 300.954136,137 C299.913936,137 298.942262,136.739505 298.075731,135.815156 C297.532608,135.228019 297,134.336743 297,133.076546 C297,131.901931 297.451394,130.782551 298.421981,129.95674 C299.185543,129.293569 300.063676,129 301.103875,129 C303.519646,129 305,130.75016 305,132.96812 C305,133.511273 304.930387,134.630312 304.028325,135.684908" id="Fill-43" fill="#A39068"></path>
            <path d="M310.682221,129 L314.676526,134.085808 L314.676526,129.911281 C314.688284,129.405171 314.665136,129.292584 314.019933,129.292584 L313.658017,129.292584 L313.658017,129 L316,129 L316,129.292584 L315.624489,129.292584 C315.11009,129.270349 315.075185,129.438346 315.062692,130.170689 L315.062692,137 L314.781978,137 L309.382262,130.001632 L309.382262,135.930957 C309.394755,136.437067 309.511597,136.628711 309.956552,136.650946 L310.553254,136.650946 L310.553254,136.94353 L308,136.94353 L308,136.650946 L308.420705,136.650946 C308.92555,136.628711 308.984706,136.448361 308.995361,135.953192 L308.995361,130.001632 C308.984706,129.506463 308.984706,129.326113 308.410049,129.303878 L308,129.292584 L308,129 L310.682221,129" id="Fill-44" fill="#A39068"></path>
            <polyline id="Fill-45" fill="#A39068" points="320.940431 129.294651 320.940431 136.70606 322 136.70606 322 137 318 137 318 136.70606 319.059964 136.70606 319.059964 129.294651 318 129.294651 318 129 322 129 322 129.294651 320.940431 129.294651"></polyline>
            <path d="M328,129.293569 C326.139594,129.293569 325.965917,131.065209 325.965917,132.804799 C325.965917,133.739036 326.011965,134.870008 326.231327,135.457145 C326.600798,136.522312 327.306019,136.717342 328.058376,136.717342 C328.682379,136.717342 329.398115,136.597664 329.791516,135.413161 C329.964104,134.891489 330.02248,134.326173 330.02248,132.956527 C330.02248,130.727997 329.837201,129.293569 328,129.293569 M331.028644,135.684908 C330.137781,136.717342 329.051849,137 327.954315,137 C326.91298,137 325.941987,136.739505 325.075417,135.815156 C324.53227,135.228019 324,134.336743 324,133.076546 C324,131.901931 324.451414,130.782551 325.422045,129.95674 C326.185642,129.293569 327.063814,129 328.104061,129 C330.519579,129 332,130.75016 332,132.96812 C332,133.511273 331.930384,134.630312 331.028644,135.684908" id="Fill-46" fill="#A39068"></path>
        </g>
    </g>
</svg>