<?xml version="1.0" encoding="UTF-8"?><svg id="Layer_2" xmlns="http://www.w3.org/2000/svg" viewBox="0 0 31.36 325.1"><defs><style>.cls-1{fill:#cbcac5;}.cls-1,.cls-2,.cls-3{fill-rule:evenodd;}.cls-2{fill:#fffffe;}.cls-3{fill:#e6be89;}</style></defs><g id="Layer_1-2"><g id="Page-1"><g id="Landing" transform="translate(-704.000000, -310.000000)"><g id="Luminary_match-01" transform="translate(704.000000, 310.000000)"><path id="Fill-1" class="cls-3" d="M24.26,325.1H6.96V38.4s8.3-2.4,17.3,0V325.1"/><path id="Fill-2" class="cls-2" d="M24.26,38.4H6.96s-1.1-2-2.4-5.2C.16,22.7-6.74,0,15.66,0c1.1,0,2.1,0,3.1,.2,24.4,2.7,5.5,38.2,5.5,38.2"/><path id="Fill-3" class="cls-1" d="M24.26,38.4h0c-3-.8-6-1-8.5-1-4.9,0-8.4,.9-8.8,1h0s-1.1-2.1-2.4-5.2h0c1.1-.4,2.4-.5,3.6-.6,3.3-.5,6.4-2.3,8.5-5,1.8-2.3,2.8-5,3.8-7.8,.9-2.6,1.9-5.5,.6-8-.7-1.3-2-2.5-1.9-4,.1-1.4,1.5-2.5,1.8-3.9s-.6-2.7-1.6-3.5c-.2-.1-.3-.2-.5-.3,9.5,1,12.5,7.1,12.5,14v.4c-.2,10.9-7.1,23.8-7.1,23.9"/><path id="Fill-4" class="cls-3" d="M24.26,325.1H6.96V38.4s8.3-2.4,17.3,0V325.1"/></g></g></g></g></svg>