<?xml version="1.0" encoding="UTF-8"?>
<svg width="31.2804426px" height="325.087305px" viewBox="0 0 31.2804426 325.087305" version="1.1" xmlns="http://www.w3.org/2000/svg" xmlns:xlink="http://www.w3.org/1999/xlink">
    <defs>
        <polygon id="path-q1hts728t4-1" points="1.0949031e-14 0 12.5386217 0 12.5386217 287.744186 1.0949031e-14 287.744186"></polygon>
    </defs>
    <g id="Page-1" stroke="none" stroke-width="1" fill="none" fill-rule="evenodd">
        <g id="Landing" transform="translate(-704.000000, -310.000000)">
            <rect fill="#FFFFFF" x="0" y="0" width="1440" height="1200"></rect>
            <g id="Luminary_match-01" transform="translate(704.000000, 310.000000)">
                <path d="M24.3059878,325.087305 L6.96734076,325.087305 L6.96734076,38.3878755 C6.96734076,38.3878755 15.2498886,36.0271568 24.3059878,38.3878755 L24.3059878,325.087305" id="Fill-1" fill="#E6BE89"></path>
                <path d="M24.2998241,38.3801708 L6.96579982,38.3801708 C6.96579982,38.3801708 5.87327398,36.3430493 4.56347572,33.1964516 C0.18104484,22.7196065 -6.75009935,0 15.6412871,0 C16.732272,0 17.769324,0.0539328694 18.7339519,0.163339547 C43.234884,2.8553602 24.2998241,38.3801708 24.2998241,38.3801708" id="Fill-2" fill="#FFFFFE"></path>
                <path d="M24.2998241,38.3801708 L24.2720871,38.3801708 C21.2657149,37.5989147 18.3440943,37.338496 15.7861354,37.338496 C10.9198496,37.338496 7.35873929,38.2800098 6.9966186,38.3801708 L6.96579982,38.3801708 C6.95039042,38.3539749 5.86556928,36.3230171 4.56501666,33.1995335 L4.56501666,33.1964516 C5.67295189,32.83279 7.00124142,32.7418746 8.18314173,32.5600438 C11.4946199,32.0499929 14.5687935,30.2486351 16.6413566,27.6120882 C18.4427144,25.3376621 19.4427839,22.5732173 20.4259031,19.8442141 C21.3535484,17.2446498 22.2811938,14.2968332 21.0068371,11.8421172 C20.3164964,10.5323189 19.0251894,9.38586022 19.0976136,7.89423115 C19.188529,6.45807588 20.5707514,5.38404131 20.8619889,3.96483637 C21.1347351,2.60110525 20.2980051,1.27281572 19.2424618,0.473068312 C19.0791223,0.363661634 18.9157827,0.254254956 18.7339519,0.163339547 C28.2769879,1.21117815 31.2309682,7.2424139 31.2787374,14.2151634 L31.2787374,14.5695794 C31.2047723,25.3977587 24.3352657,38.3123695 24.2998241,38.3801708" id="Fill-3" fill="#CBCAC5"></path>
                <path d="M24.3059878,325.087305 L6.96734076,325.087305 L6.96734076,38.3878755 C6.96734076,38.3878755 15.2498886,36.0271568 24.3059878,38.3878755 L24.3059878,325.087305" id="Fill-4" fill="#E6BE89"></path>
                <g id="Group-7" transform="translate(11.765825, 37.343119)">
                    <mask id="mask-q1hts728t4-2" fill="white">
                        <use xlink:href="#path-q1hts728t4-1"></use>
                    </mask>
                    <g id="Clip-6"></g>
                    <path d="M12.5386217,287.744186 L1.0949031e-14,287.744186 L1.0949031e-14,0.21110866 C1.0909849,0.097079165 2.32527714,0.012327513 3.66743512,0 L4.41016778,0 C6.88183414,0.024655026 9.66939302,0.297401251 12.5386217,1.04629767 L12.5386217,287.744186" id="Fill-5" fill="#E0A365" mask="url(#mask-q1hts728t4-2)"></path>
                </g>
            </g>
        </g>
    </g>
</svg>